# xmcd CD database file
#
# Track frame offsets:
#	150
#	18594
#	34266
#	66742
#	90379
#	111132
#	133307
#	152750
#	178193
#	201896
#	224454
#	238830
#	259574
#	281093
#
# Disc length: 4136 seconds
#
# Revision: 0
# Processed by: cddbd v1.5.1PL2 Copyright (c) Steve Scherf et al.
# Submitted via: CDex 1.51
#
DISCID=d910260e
DTITLE=Steven Halpern - Afro-Desia
DYEAR=1996
DGENRE=Jazz
TTITLE0=Afro-Desia
TTITLE1=Dance of Strength
TTITLE2=Chic to Sheik
TTITLE3=Astro-Glide
TTITLE4=Ecstasy
TTITLE5=Rhythm Method
TTITLE6=Changó
TTITLE7=Wachamba
TTITLE8=Chant the Spirit
TTITLE9=Invocation
TTITLE10=Legacy
TTITLE11=Suru Smiles
TTITLE12=Voices on the Mountain
TTITLE13=Initiation
EXTD=YEAR: 1996
EXTT0=
EXTT1=
EXTT2=
EXTT3=
EXTT4=
EXTT5=
EXTT6=
EXTT7=
EXTT8=
EXTT9=
EXTT10=
EXTT11=
EXTT12=
EXTT13=
PLAYORDER=
